:SAMPLES-PER-SECOND 30
:FULLY-SPECIFIED
:DEGREES
293
root  60.3564 39.0391 -6.189 -1.03049 11.2848 0.443848
RightUpLeg  -2.55204 22.7752 -1.73492
RightLeg  24.4717 7.86658 3.67461
RightFoot  -17.7754 -0.463803 -6.10399
RightToes  0.00048216 0.542163 -0.142577
Spine  9.38163 -0.544525 2.04214
Spine1  8.13792 -0.605186 1.01042
HEad  -12.8597 0.255914 2.21759
LeftShoulder1  8.31398 -12.2469 -46.0319
LeftArm  -15.1087 24.0916 -30.3573
LeftForeArm  48.8881 -46.7916 -8.47738
LeftHand  -0.25398 0.0180481 5.50724
RightShoulder  4.60285 8.08184 33.7832
RightArm  -6.44746 -21.1438 33.5142
RightForeArm  -2.72079 49.3119 13.2886
RightHand  -0.939591 0.104118 -19.7511
LeftUpLeg  -14.7153 -9.96067 15.0547
LeftLeg  12.4102 -3.88808 1.02162
LeftFoot  -8.59827 0.164904 -4.22836
LeftToes  1.06247e-005 4.65855e-005 -8.185e-006
294
root  61.957 38.8944 -6.03175 -0.934725 4.92361 0.272827
RightUpLeg  -3.15707 26.3999 -4.36055
RightLeg  24.3981 9.31182 4.37038
RightFoot  -18.591 -0.405826 -4.44764
RightToes  0.00048216 0.542163 -0.142577
Spine  10.0763 -0.785485 2.74589
Spine1  8.13552 -0.523286 -0.235094
HEad  -13.634 -2.30093 3.07911
LeftShoulder1  8.40528 -12.3798 -46.1502
LeftArm  -14.0435 23.1839 -30.5407
LeftForeArm  47.8443 -44.2662 -7.69412
LeftHand  -0.25398 0.0180481 5.50724
RightShoulder  4.59034 7.97126 34.0526
RightArm  -7.23581 -18.1092 32.7279
RightForeArm  -7.11182 43.5098 11.1058
RightHand  -1.45497 2.49183 -21.4694
LeftUpLeg  -13.4877 -7.31954 13.381
LeftLeg  12.5237 -8.29351 0.348411
LeftFoot  -6.94679 0.395964 -9.16794
LeftToes  1.06247e-005 4.65855e-005 -8.185e-006
295
root  63.555 38.7423 -5.88649 -0.636241 -0.787354 0.584961
RightUpLeg  -4.37895 27.8204 -8.03265
RightLeg  23.9468 10.1354 4.67808
RightFoot  -19.2426 -0.225718 -1.38524
RightToes  0.00048216 0.542163 -0.142577
Spine  10.8575 -0.92183 1.43054
Spine1  8.15661 -1.06138 0.809931
HEad  -14.6183 -5.08523 3.63647
LeftShoulder1  8.73368 -12.643 -47.1986
LeftArm  -12.7757 21.797 -29.8565
LeftForeArm  45.8022 -41.7521 -7.03776
LeftHand  -0.25398 0.0180481 5.50724
RightShoulder  4.48756 7.84867 33.5846
RightArm  -6.71305 -13.6744 32.3949
RightForeArm  -10.5003 35.9245 8.728
RightHand  -1.92511 4.50371 -22.6709
LeftUpLeg  -13.9318 -7.38212 12.0313
LeftLeg  16.1068 -4.14187 -0.552163
LeftFoot  -5.4635 0.622364 -11.5426
LeftToes  1.06247e-005 4.65855e-005 -8.185e-006
296
root  65.0447 38.6733 -5.72456 -0.167418 -6.63528 1.63098
RightUpLeg  -6.35409 25.7256 -12.5763
RightLeg  23.235 9.05729 4.03278
RightFoot  -18.5946 0.0239268 2.46358
RightToes  0.00048216 0.542163 -0.142577
Spine  11.3137 -0.607236 -1.00768
Spine1  8.05749 -1.23609 1.85477
HEad  -15.1343 -8.60604 4.56491
LeftShoulder1  9.05152 -13.0201 -47.8158
LeftArm  -11.8155 20.5944 -29.1565
LeftForeArm  44.126 -39.5351 -6.49395
LeftHand  -0.25398 0.0180481 5.50724
RightShoulder  4.48439 7.93706 33.2526
RightArm  -6.2285 -9.90496 32.732
RightForeArm  -12.084 28.1406 6.65608
RightHand  -2.13604 5.30803 -23.2502
LeftUpLeg  -14.6787 -2.02462 9.2208
LeftLeg  19.8581 -2.96643 -0.927161
LeftFoot  -6.07291 0.546987 -11.0187
LeftToes  1.06247e-005 4.65855e-005 -8.185e-006
297
root  66.4244 38.7657 -5.51066 0.246409 -13.568 3.03265
RightUpLeg  -9.05889 20.291 -16.4764
RightLeg  22.9667 5.55475 2.35954
RightFoot  -16.0087 0.099281 5.02288
RightToes  0.00048216 0.542163 -0.142577
Spine  11.2738 0.0854299 -2.19976
Spine1  7.72252 -0.197104 0.140328
HEad  -14.8375 -12.7436 6.15801
LeftShoulder1  9.15072 -13.3303 -47.4424
LeftArm  -11.5102 20.1391 -28.5762
LeftForeArm  43.46 -38.1193 -6.14287
LeftHand  -0.25398 0.0180481 5.50724
RightShoulder  4.61678 8.17216 33.5954
RightArm  -6.42179 -8.05745 33.6551
RightForeArm  -12.1474 21.6365 5.56801
RightHand  -2.14628 5.22427 -23.5339
LeftUpLeg  -14.4455 6.66598 5.84836
LeftLeg  21.1334 -4.10472 -1.39163
LeftFoot  -7.51492 0.357127 -9.34194
LeftToes  1.06247e-005 4.65855e-005 -8.185e-006
